<?xml version="1.0" standalone="no"?>
<!DOCTYPE svg PUBLIC "-//W3C//DTD SVG 20010904//EN"
 "http://www.w3.org/TR/2001/REC-SVG-20010904/DTD/svg10.dtd">
<svg version="1.0" xmlns="http://www.w3.org/2000/svg"
 width="265.000000pt" height="265.000000pt" viewBox="0 0 265.000000 265.000000"
 preserveAspectRatio="xMidYMid meet">
<metadata>
Created by potrace 1.11, written by Peter Selinger 2001-2013
</metadata>
<g transform="translate(0.000000,265.000000) scale(0.100000,-0.100000)"
fill="#000000" stroke="none">
<path d="M1075 2574 c-60 -13 -114 -26 -120 -27 -5 -2 -23 -7 -40 -12 -56 -14
-219 -97 -305 -153 -98 -65 -255 -217 -321 -312 -95 -134 -192 -354 -213 -480
-27 -165 -32 -364 -11 -475 119 -640 658 -1081 1296 -1061 273 9 508 92 724
256 314 238 492 588 500 980 7 314 -84 590 -274 833 -37 49 -180 186 -231 224
-298 217 -664 300 -1005 227z"/>
</g>
</svg>
